<svg xmlns="http://www.w3.org/2000/svg" width="720" height="180" viewBox="0 0 720 180" fill="none">
<title>pattern_minsa_repeat_tile</title>
<defs>
<style><![CDATA[
.line { stroke: #284C3A; stroke-width: 7; stroke-linecap: round; stroke-linejoin: round; fill: none; }
.line-thin { stroke: #284C3A; stroke-width: 4.6; stroke-linecap: round; stroke-linejoin: round; fill: none; }
.accent { stroke: #C99A45; stroke-width: 5; stroke-linecap: round; stroke-linejoin: round; fill: none; }
.fill-green { fill: #284C3A; }
.fill-sage { fill: #8BAA78; }
.fill-gold { fill: #C99A45; }
]]></style>
<filter id="soften" x="-10%" y="-10%" width="120%" height="120%"><feGaussianBlur stdDeviation="0.15"/></filter>

</defs>

<g opacity="0.48" filter="url(#soften)">
<rect x="20.00" y="30.00" width="24.20" height="9.90" rx="2" fill="#8BAA78" opacity="0.62"/><rect x="20.82" y="30.61" width="23.10" height="9.08" rx="2" fill="white" opacity="0.08"/><rect x="50.80" y="30.00" width="9.90" height="9.90" rx="2" fill="#8BAA78" opacity="0.62"/><rect x="51.63" y="30.61" width="8.80" height="9.08" rx="2" fill="white" opacity="0.08"/><rect x="67.30" y="30.00" width="9.90" height="9.90" rx="2" fill="#8BAA78" opacity="0.62"/><rect x="68.13" y="30.61" width="8.80" height="9.08" rx="2" fill="white" opacity="0.08"/><rect x="83.80" y="30.00" width="24.20" height="9.90" rx="2" fill="#8BAA78" opacity="0.62"/><rect x="84.63" y="30.61" width="23.10" height="9.08" rx="2" fill="white" opacity="0.08"/><rect x="116.80" y="32.20" width="5.50" height="5.50" transform="rotate(45 120.10 35.50)" fill="#8BAA78" opacity="0.46499999999999997"/><rect x="132.20" y="30.00" width="9.90" height="9.90" rx="2" fill="#8BAA78" opacity="0.62"/><rect x="133.03" y="30.61" width="8.80" height="9.08" rx="2" fill="white" opacity="0.08"/><rect x="148.70" y="30.00" width="24.20" height="9.90" rx="2" fill="#8BAA78" opacity="0.62"/><rect x="149.53" y="30.61" width="23.10" height="9.08" rx="2" fill="white" opacity="0.08"/><rect x="179.50" y="30.00" width="9.90" height="9.90" rx="2" fill="#8BAA78" opacity="0.62"/><rect x="180.33" y="30.61" width="8.80" height="9.08" rx="2" fill="white" opacity="0.08"/><rect x="196.00" y="30.00" width="24.20" height="9.90" rx="2" fill="#8BAA78" opacity="0.62"/><rect x="196.83" y="30.61" width="23.10" height="9.08" rx="2" fill="white" opacity="0.08"/><rect x="226.80" y="30.00" width="9.90" height="9.90" rx="2" fill="#8BAA78" opacity="0.62"/><rect x="227.63" y="30.61" width="8.80" height="9.08" rx="2" fill="white" opacity="0.08"/><rect x="245.50" y="32.20" width="5.50" height="5.50" transform="rotate(45 248.80 35.50)" fill="#8BAA78" opacity="0.46499999999999997"/><rect x="260.90" y="30.00" width="24.20" height="9.90" rx="2" fill="#8BAA78" opacity="0.62"/><rect x="261.73" y="30.61" width="23.10" height="9.08" rx="2" fill="white" opacity="0.08"/><rect x="291.70" y="30.00" width="9.90" height="9.90" rx="2" fill="#8BAA78" opacity="0.62"/><rect x="292.53" y="30.61" width="8.80" height="9.08" rx="2" fill="white" opacity="0.08"/><rect x="308.20" y="30.00" width="9.90" height="9.90" rx="2" fill="#8BAA78" opacity="0.62"/><rect x="309.03" y="30.61" width="8.80" height="9.08" rx="2" fill="white" opacity="0.08"/><rect x="324.70" y="30.00" width="24.20" height="9.90" rx="2" fill="#8BAA78" opacity="0.62"/><rect x="325.53" y="30.61" width="23.10" height="9.08" rx="2" fill="white" opacity="0.08"/>
<rect x="20.00" y="88.00" width="24.20" height="9.90" rx="2" fill="#B96B4A" opacity="0.4"/><rect x="20.82" y="88.61" width="23.10" height="9.08" rx="2" fill="white" opacity="0.08"/><rect x="50.80" y="88.00" width="9.90" height="9.90" rx="2" fill="#B96B4A" opacity="0.4"/><rect x="51.63" y="88.61" width="8.80" height="9.08" rx="2" fill="white" opacity="0.08"/><rect x="67.30" y="88.00" width="9.90" height="9.90" rx="2" fill="#B96B4A" opacity="0.4"/><rect x="68.13" y="88.61" width="8.80" height="9.08" rx="2" fill="white" opacity="0.08"/><rect x="83.80" y="88.00" width="24.20" height="9.90" rx="2" fill="#B96B4A" opacity="0.4"/><rect x="84.63" y="88.61" width="23.10" height="9.08" rx="2" fill="white" opacity="0.08"/><rect x="116.80" y="90.20" width="5.50" height="5.50" transform="rotate(45 120.10 93.50)" fill="#B96B4A" opacity="0.30000000000000004"/><rect x="132.20" y="88.00" width="9.90" height="9.90" rx="2" fill="#B96B4A" opacity="0.4"/><rect x="133.03" y="88.61" width="8.80" height="9.08" rx="2" fill="white" opacity="0.08"/><rect x="148.70" y="88.00" width="24.20" height="9.90" rx="2" fill="#B96B4A" opacity="0.4"/><rect x="149.53" y="88.61" width="23.10" height="9.08" rx="2" fill="white" opacity="0.08"/><rect x="179.50" y="88.00" width="9.90" height="9.90" rx="2" fill="#B96B4A" opacity="0.4"/><rect x="180.33" y="88.61" width="8.80" height="9.08" rx="2" fill="white" opacity="0.08"/><rect x="196.00" y="88.00" width="24.20" height="9.90" rx="2" fill="#B96B4A" opacity="0.4"/><rect x="196.83" y="88.61" width="23.10" height="9.08" rx="2" fill="white" opacity="0.08"/><rect x="226.80" y="88.00" width="9.90" height="9.90" rx="2" fill="#B96B4A" opacity="0.4"/><rect x="227.63" y="88.61" width="8.80" height="9.08" rx="2" fill="white" opacity="0.08"/><rect x="245.50" y="90.20" width="5.50" height="5.50" transform="rotate(45 248.80 93.50)" fill="#B96B4A" opacity="0.30000000000000004"/><rect x="260.90" y="88.00" width="24.20" height="9.90" rx="2" fill="#B96B4A" opacity="0.4"/><rect x="261.73" y="88.61" width="23.10" height="9.08" rx="2" fill="white" opacity="0.08"/><rect x="291.70" y="88.00" width="9.90" height="9.90" rx="2" fill="#B96B4A" opacity="0.4"/><rect x="292.53" y="88.61" width="8.80" height="9.08" rx="2" fill="white" opacity="0.08"/><rect x="308.20" y="88.00" width="9.90" height="9.90" rx="2" fill="#B96B4A" opacity="0.4"/><rect x="309.03" y="88.61" width="8.80" height="9.08" rx="2" fill="white" opacity="0.08"/><rect x="324.70" y="88.00" width="24.20" height="9.90" rx="2" fill="#B96B4A" opacity="0.4"/><rect x="325.53" y="88.61" width="23.10" height="9.08" rx="2" fill="white" opacity="0.08"/>
<circle cx="200" cy="70" r="4" fill="#C99A45" opacity="0.45"/>
<circle cx="520" cy="122" r="4" fill="#C99A45" opacity="0.45"/>
</g>

</svg>